<?xml version="1.0" encoding="UTF-8" standalone="no"?>
<svg
   width="107"
   height="128"
   viewBox="0 0 107 128"
   version="1.1"
   id="svg8"
   sodipodi:docname="svelte-logo.svg"
   inkscape:version="1.2.2 (1:1.2.2+202212051552+b0a8486541)"
   xmlns:inkscape="http://www.inkscape.org/namespaces/inkscape"
   xmlns:sodipodi="http://sodipodi.sourceforge.net/DTD/sodipodi-0.dtd"
   xmlns="http://www.w3.org/2000/svg"
   xmlns:svg="http://www.w3.org/2000/svg">
  <text
     xml:space="preserve"
     style="font-style:normal;font-variant:normal;font-weight:normal;font-stretch:normal;font-size:168.114px;line-height:1.25;font-family:Carlsen;-inkscape-font-specification:Carlsen;display:none;fill:#ff3e00;fill-opacity:1;stroke:none;stroke-width:4.20282"
     x="18.952574"
     y="111.40815"
     id="text396"><tspan
       sodipodi:role="line"
       id="tspan394"
       x="18.952574"
       y="111.40815"
       style="fill:#ff3e00;fill-opacity:1;stroke-width:4.20282">f</tspan></text>
  <g
     aria-label="f"
     id="text1004"
     style="font-size:168.114px;line-height:1.25;font-family:Carlsen;-inkscape-font-specification:Carlsen;fill:#ff3e00;stroke-width:4.20282">
    <path
       d="M 72.749053,63.49566 V 50.88711 L 54.760855,57.107328 Z M 52.071031,7.5136987 c -13.281005,0 -22.695389,5.8839903 -22.695389,22.3591613 v 85.2338 l -3.698508,5.37965 H 49.381207 V 22.980187 c 0,-6.556446 3.698508,-14.7940323 10.92741,-14.7940323 -2.52171,-0.504342 -5.547762,-0.672456 -8.237586,-0.672456 z m 9.414384,13.7853483 c 0,5.547762 4.370964,10.086839 9.918726,10.086839 5.547762,0 9.918726,-4.539077 9.918726,-10.086839 0,-5.547762 -4.370964,-9.918726 -9.918726,-9.918726 -5.547762,0 -9.918726,4.370964 -9.918726,9.918726 z"
       id="path1006" />
  </g>
  <defs
     id="defs12" />
  <sodipodi:namedview
     id="namedview10"
     pagecolor="#ffffff"
     bordercolor="#666666"
     borderopacity="1.0"
     inkscape:showpageshadow="2"
     inkscape:pageopacity="0.0"
     inkscape:pagecheckerboard="0"
     inkscape:deskcolor="#d1d1d1"
     showgrid="false"
     inkscape:zoom="6.15625"
     inkscape:cx="53.035533"
     inkscape:cy="64.081218"
     inkscape:window-width="1862"
     inkscape:window-height="1016"
     inkscape:window-x="0"
     inkscape:window-y="0"
     inkscape:window-maximized="1"
     inkscape:current-layer="svg8" />
  <title
     id="title2">svelte-logo</title>
</svg>
