<?xml version="1.0" encoding="UTF-8" standalone="no"?>
<svg
   width="128"
   height="128"
   viewBox="0 0 128 128"
   version="1.1"
   id="svg8"
   sodipodi:docname="logo_512.svg"
   inkscape:version="1.2.2 (1:1.2.2+202212051552+b0a8486541)"
   inkscape:export-filename="logo_512.png"
   inkscape:export-xdpi="384"
   inkscape:export-ydpi="384"
   xmlns:inkscape="http://www.inkscape.org/namespaces/inkscape"
   xmlns:sodipodi="http://sodipodi.sourceforge.net/DTD/sodipodi-0.dtd"
   xmlns="http://www.w3.org/2000/svg"
   xmlns:svg="http://www.w3.org/2000/svg"
   xmlns:rdf="http://www.w3.org/1999/02/22-rdf-syntax-ns#"
   xmlns:cc="http://creativecommons.org/ns#"
   xmlns:dc="http://purl.org/dc/elements/1.1/">
  <text
     xml:space="preserve"
     style="font-style:normal;font-variant:normal;font-weight:normal;font-stretch:normal;font-size:168.114px;line-height:1.25;font-family:Carlsen;-inkscape-font-specification:Carlsen;display:none;fill:#ff3e00;fill-opacity:1;stroke:none;stroke-width:4.20282"
     x="13.15264"
     y="96.95034"
     id="text396"><tspan
       sodipodi:role="line"
       id="tspan394"
       x="0"
       y="0"
       style="fill:#ff3e00;fill-opacity:1;stroke-width:4.20282">a</tspan></text>
  <defs
     id="defs12" />
  <sodipodi:namedview
     id="namedview10"
     pagecolor="#ffffff"
     bordercolor="#666666"
     borderopacity="1.0"
     inkscape:showpageshadow="2"
     inkscape:pageopacity="0.0"
     inkscape:pagecheckerboard="0"
     inkscape:deskcolor="#d1d1d1"
     showgrid="false"
     inkscape:zoom="5.3129854"
     inkscape:cx="39.243473"
     inkscape:cy="67.28797"
     inkscape:window-width="1862"
     inkscape:window-height="1016"
     inkscape:window-x="0"
     inkscape:window-y="0"
     inkscape:window-maximized="1"
     inkscape:current-layer="svg8" />
  <title
     id="title2">svelte-logo</title>
  <g
     aria-label="a"
     id="text1181"
     style="font-size:168.114px;line-height:1.25;font-family:Carlsen;-inkscape-font-specification:Carlsen;display:inline;fill:#e48172;fill-opacity:1;stroke:#e14d1e;stroke-width:4.20282;stroke-opacity:1"
     transform="translate(9.5015641)">
    <path
       d="M 83.088064,96.95034 V 44.330659 c 0,-16.475172 -9.414384,-22.527276 -22.69539,-22.527276 -2.689824,0 -5.547762,0.168114 -8.237586,0.672456 7.228902,0 10.759296,8.4057 10.759296,14.794032 v 54.973277 c 0,12.104212 11.263638,13.785352 15.466488,13.785352 H 87.1228 l -3.866622,-5.37965 V 96.95034 Z M 27.946672,35.588731 c 0,5.547762 4.539078,9.918726 10.08684,9.918726 5.379648,0 9.918726,-4.370964 9.918726,-9.918726 0,-5.547762 -4.539078,-10.08684 -9.918726,-10.08684 -5.547762,0 -10.08684,4.539078 -10.08684,10.08684 z M 48.45658,59.797147 c -22.69539,0 -28.57938,10.08684 -28.57938,22.695389 v 1.68114 c 0.168114,12.272322 6.388332,22.022934 28.57938,22.022934 -3.698508,-0.84057 -8.573814,-10.759296 -8.573814,-20.846136 v -4.539078 c 0,-11.263637 4.875306,-20.173679 8.573814,-21.014249 z"
       id="path1183"
       style="fill:#e48172;fill-opacity:1;stroke:#e14d1e;stroke-opacity:1" />
    <path
       d="M 83.088064,96.95034 V 44.330659 c 0,-16.475172 -9.414384,-22.527276 -22.69539,-22.527276 -2.689824,0 -5.547762,0.168114 -8.237586,0.672456 7.228902,0 10.759296,8.4057 10.759296,14.794032 v 54.973277 c 0,12.104212 11.263638,13.785352 15.466488,13.785352 H 87.1228 l -3.866622,-5.37965 V 96.95034 Z M 27.946672,35.588731 c 0,5.547762 4.539078,9.918726 10.08684,9.918726 5.379648,0 9.918726,-4.370964 9.918726,-9.918726 0,-5.547762 -4.539078,-10.08684 -9.918726,-10.08684 -5.547762,0 -10.08684,4.539078 -10.08684,10.08684 z M 48.45658,59.797147 c -22.69539,0 -28.57938,10.08684 -28.57938,22.695389 v 1.68114 c 0.168114,12.272322 6.388332,22.022934 28.57938,22.022934 -3.698508,-0.84057 -8.573814,-10.759296 -8.573814,-20.846136 v -4.539078 c 0,-11.263637 4.875306,-20.173679 8.573814,-21.014249 z"
       id="path292"
       style="fill:#e48172;fill-opacity:1;stroke:#e14d1e;stroke-opacity:1" />
  </g>
  <metadata
     id="metadata1226">
    <rdf:RDF>
      <cc:Work
         rdf:about="">
        <dc:title>svelte-logo</dc:title>
      </cc:Work>
    </rdf:RDF>
  </metadata>
</svg>
