<?xml version="1.0" encoding="UTF-8" standalone="no"?>
<svg
   width="633.45276"
   height="117.34354"
   viewBox="0 0 633.45276 117.34354"
   version="1.1"
   id="svg8"
   sodipodi:docname="banner.svg"
   inkscape:version="1.2.2 (1:1.2.2+202212051552+b0a8486541)"
   xmlns:inkscape="http://www.inkscape.org/namespaces/inkscape"
   xmlns:sodipodi="http://sodipodi.sourceforge.net/DTD/sodipodi-0.dtd"
   xmlns="http://www.w3.org/2000/svg"
   xmlns:svg="http://www.w3.org/2000/svg"
   xmlns:rdf="http://www.w3.org/1999/02/22-rdf-syntax-ns#"
   xmlns:cc="http://creativecommons.org/ns#"
   xmlns:dc="http://purl.org/dc/elements/1.1/">
  <text
     xml:space="preserve"
     style="font-style:normal;font-variant:normal;font-weight:normal;font-stretch:normal;font-size:168.114px;line-height:1.25;font-family:Carlsen;-inkscape-font-specification:Carlsen;display:none;fill:#e48172;fill-opacity:1;stroke:#e14d1e;stroke-width:4.20282;stroke-opacity:1"
     x="-4.6231499"
     y="105.99586"
     id="text396"><tspan
       sodipodi:role="line"
       id="tspan394"
       x="-4.6231499"
       y="105.99586"
       style="fill:#e48172;fill-opacity:1;stroke:#e14d1e;stroke-width:4.20282;stroke-opacity:1">accountr</tspan></text>
  <defs
     id="defs12" />
  <sodipodi:namedview
     id="namedview10"
     pagecolor="#ffffff"
     bordercolor="#666666"
     borderopacity="1.0"
     inkscape:showpageshadow="2"
     inkscape:pageopacity="0.0"
     inkscape:pagecheckerboard="0"
     inkscape:deskcolor="#d1d1d1"
     showgrid="false"
     inkscape:zoom="1.2268538"
     inkscape:cx="386.3541"
     inkscape:cy="72.135735"
     inkscape:window-width="1862"
     inkscape:window-height="1016"
     inkscape:window-x="0"
     inkscape:window-y="0"
     inkscape:window-maximized="1"
     inkscape:current-layer="svg8" />
  <title
     id="title2">svelte-logo</title>
  <metadata
     id="metadata1226">
    <rdf:RDF>
      <cc:Work
         rdf:about="">
        <dc:title>svelte-logo</dc:title>
      </cc:Work>
    </rdf:RDF>
  </metadata>
  <g
     aria-label="accountr"
     id="text394"
     style="font-size:168.114px;line-height:1.25;font-family:Carlsen;-inkscape-font-specification:Carlsen;display:inline;fill:#e48172;stroke:#e14d1e;stroke-width:4.20282">
    <path
       d="M 65.312273,105.99586 V 53.376176 c 0,-16.475172 -9.414383,-22.527276 -22.695389,-22.527276 -2.689824,0 -5.547762,0.168114 -8.237586,0.672456 7.228902,0 10.759296,8.4057 10.759296,14.794032 v 54.973282 c 0,12.1042 11.263638,13.78534 15.466488,13.78534 h 8.741927 l -3.866622,-5.37964 v -3.69851 z M 10.170882,44.634248 c 0,5.547762 4.539078,9.918726 10.08684,9.918726 5.379648,0 9.918726,-4.370964 9.918726,-9.918726 0,-5.547762 -4.539078,-10.08684 -9.918726,-10.08684 -5.547762,0 -10.08684,4.539078 -10.08684,10.08684 z M 30.68079,68.842664 c -22.69539,0 -28.5793799,10.086839 -28.5793799,22.695389 v 1.68114 C 2.2695241,105.49152 8.489742,115.24213 30.68079,115.24213 26.982282,114.40156 22.106976,104.48283 22.106976,94.395991 v -4.539078 c 0,-11.263638 4.875306,-20.173679 8.573814,-21.014249 z"
       id="path396" />
    <path
       d="m 122.80718,30.680786 c 0,0 8.06947,1.68114 11.76798,19.837452 h 16.64329 C 145.16634,38.750258 134.74328,30.680786 122.80718,30.680786 Z m -1.34491,79.517924 C 113.3928,107.677 103.8103,101.79301 103.8103,72.8774 c 0,-39.338676 13.78535,-42.196614 13.78535,-42.196614 -18.492541,0 -34.631485,19.669338 -34.799599,42.196614 0,34.63148 25.048989,42.19661 38.666219,42.19661 13.44912,0 19.33311,-4.37096 21.51859,-6.22021 -3.53039,1.84925 -11.76798,4.70719 -21.51859,1.34491 z"
       id="path398" />
    <path
       d="m 204.67861,30.680786 c 0,0 8.06947,1.68114 11.76798,19.837452 h 16.64329 C 227.03777,38.750258 216.61471,30.680786 204.67861,30.680786 Z m -1.34491,79.517924 c -8.06947,-2.52171 -17.65197,-8.4057 -17.65197,-37.32131 0,-39.338676 13.78535,-42.196614 13.78535,-42.196614 -18.49254,0 -34.63149,19.669338 -34.7996,42.196614 0,34.63148 25.04899,42.19661 38.66622,42.19661 13.44912,0 19.33311,-4.37096 21.51859,-6.22021 -3.53039,1.84925 -11.76798,4.70719 -21.51859,1.34491 z"
       id="path400" />
    <path
       d="m 286.55006,30.680786 c 0,0 13.78534,2.857938 13.78534,42.196614 0,39.33868 -13.78534,42.19661 -13.78534,42.19661 21.51859,0 34.96771,-18.828765 34.96771,-41.692268 0,-22.863504 -16.30706,-42.700956 -34.96771,-42.700956 z m -5.21154,0 c -18.66065,0 -34.79959,19.837452 -34.79959,42.700956 0,22.863503 13.44912,41.692268 34.79959,41.692268 0,0 -13.78534,-2.85793 -13.78534,-42.19661 0,-39.338676 13.78534,-42.196614 13.78534,-42.196614 z"
       id="path402" />
    <path
       d="M 358.67081,96.077131 V 36.228548 l 3.86662,-5.379648 h -27.57069 l 3.6985,5.379648 v 61.697837 c 0,9.918725 8.91005,17.147625 20.00557,17.147625 11.26364,0 16.97951,-6.89267 16.97951,-6.89267 0,0 -2.35359,1.51303 -7.06078,1.51303 -4.87531,0 -9.91873,-2.01737 -9.91873,-13.617239 z m 51.77911,-65.396345 h -27.73881 l 3.69851,5.547762 v 78.845462 h 24.0403 l -3.86662,-5.37964 V 36.228548 Z"
       id="path404" />
    <path
       d="m 495.51549,47.996528 c 0,-9.918726 -8.74193,-17.147628 -20.00557,-17.147628 -11.26363,0 -16.97951,6.892674 -16.97951,6.892674 0,0 2.3536,-1.513026 7.2289,-1.513026 4.87531,0 9.91873,2.017368 9.91873,13.617234 v 59.848588 l -3.86662,5.37964 h 27.73881 l -3.86663,-5.37964 V 47.996528 Z M 447.77111,30.680786 h -23.87218 l 3.6985,5.547762 v 73.465822 l -3.6985,5.37964 h 27.73881 l -3.86663,-5.37964 z"
       id="path406" />
    <path
       d="m 556.20441,49.677668 v -12.60855 h -17.9882 z M 533.00468,99.607525 V 2.1014062 L 512.99912,15.71864 v 76.828097 c 0,16.643283 9.41438,22.527273 22.69538,22.527273 2.68983,0 5.54777,-0.16811 8.23759,-0.67245 -7.2289,0 -10.92741,-8.4057 -10.92741,-14.794035 z"
       id="path408" />
    <path
       d="m 621.26453,30.680786 c -6.55644,0 -12.10421,2.185482 -16.97951,5.379648 3.69851,0 6.72456,2.52171 7.2289,6.388332 0.84057,4.707192 4.87531,8.069472 9.91873,8.069472 5.54776,0 9.91872,-4.370964 9.91872,-9.918726 0,-5.379648 -4.53908,-9.918726 -10.08684,-9.918726 z m -27.90692,0 h -23.70408 l 3.69851,5.547762 v 73.465822 l -3.69851,5.37964 h 27.73881 l -4.03473,-5.37964 z"
       id="path410" />
  </g>
</svg>
