<?xml version="1.0" encoding="UTF-8" standalone="no"?>
<!-- Generator: Adobe Illustrator 19.0.0, SVG Export Plug-In . SVG Version: 6.00 Build 0)  -->

<svg
   version="1.1"
   id="Layer_1"
   x="0px"
   y="0px"
   viewBox="0 0 367.136 367.136"
   style="enable-background:new 0 0 367.136 367.136;"
   xml:space="preserve"
   sodipodi:docname="refresh.svg"
   inkscape:version="1.2.1 (1:1.2.1+202210291243+9c6d41e410)"
   xmlns:inkscape="http://www.inkscape.org/namespaces/inkscape"
   xmlns:sodipodi="http://sodipodi.sourceforge.net/DTD/sodipodi-0.dtd"
   xmlns="http://www.w3.org/2000/svg"
   xmlns:svg="http://www.w3.org/2000/svg"><defs
   id="defs37" /><sodipodi:namedview
   id="namedview35"
   pagecolor="#ffffff"
   bordercolor="#666666"
   borderopacity="1.0"
   inkscape:showpageshadow="2"
   inkscape:pageopacity="0.0"
   inkscape:pagecheckerboard="0"
   inkscape:deskcolor="#d1d1d1"
   showgrid="false"
   inkscape:zoom="58.953799"
   inkscape:cx="-1.3569948"
   inkscape:cy="214.60025"
   inkscape:window-width="1858"
   inkscape:window-height="1016"
   inkscape:window-x="0"
   inkscape:window-y="0"
   inkscape:window-maximized="1"
   inkscape:current-layer="Layer_1" />
<path
   d="M 337.98059,86.871 C 325.89513,68.287 310.5852,52.164 292.86221,39.14 L 332.17453,0 H 217.76381 v 113.91 l 53.45256,-53.219 c 40.51228,28.131 65.64197,74.724 65.64197,124.571 0,83.744 -68.75845,151.874 -153.27494,151.874 -84.516469,0 -153.274924,-68.131 -153.274924,-151.874 0,-58.641 33.083382,-111.009 86.340144,-136.669 L 103.40861,21.614 C 72.888658,36.318 47.082793,59.1 28.782529,87.494 9.9736156,116.678 0.03174761,150.485 0.03174761,185.262 c 0,100.286 82.34059139,181.874 183.55165239,181.874 101.21107,0 183.55166,-81.588 183.55166,-181.874 0,-35.039 -10.08114,-69.061 -29.15447,-98.391 z"
   id="path2"
   style="stroke-width:1.0046;fill:#2f2f2f;fill-opacity:0.7983011" />
<g
   id="g4">
</g>
<g
   id="g6">
</g>
<g
   id="g8">
</g>
<g
   id="g10">
</g>
<g
   id="g12">
</g>
<g
   id="g14">
</g>
<g
   id="g16">
</g>
<g
   id="g18">
</g>
<g
   id="g20">
</g>
<g
   id="g22">
</g>
<g
   id="g24">
</g>
<g
   id="g26">
</g>
<g
   id="g28">
</g>
<g
   id="g30">
</g>
<g
   id="g32">
</g>
</svg>
